<?xml version="1.0" encoding="UTF-8"?>
<svg id="Layer_2" data-name="Layer 2" xmlns="http://www.w3.org/2000/svg" viewBox="0 0 1081.81 1080.2">
  <defs>
    <style>
      .cls-1 {
        fill: #fff;
      }

      .cls-2 {
        fill: #da1e28;
      }
    </style>
  </defs>
  <g id="Layer_2-2" data-name="Layer 2">
    <polygon points="36.26 56.32 36.26 1037.23 1035.13 1037.23 1047.97 308.64 748.56 36.36 36.26 56.32"/>
    <path class="cls-2" d="M1070.23,281.63L800.18,11.59c-6.87-7.63-16.74-11.86-27-11.57H77.16C34.6.14.12,34.61,0,77.17v925.87c.12,42.56,34.6,77.03,77.16,77.16h927.49c42.56-.13,77.03-34.6,77.16-77.16V308.64c.29-10.26-3.94-20.13-11.57-27ZM773.17,92.6l216.04,216.04h-216.04V92.6ZM1004.64,1003.04H77.16V77.17h618.86v231.47c.13,42.56,34.6,77.03,77.16,77.16h231.47v617.25Z"/>
    <g id="uuid-4de7608f-d093-4865-b215-fc1ad381df06">
      <circle class="cls-2" cx="655.35" cy="668.5" r="206.2"/>
      <path class="cls-1" d="M256.22,905.65c-10.92,0-19.77-8.85-19.77-19.77v-434.79c0-10.92,8.85-19.77,19.76-19.77,3.32,0,6.61.84,9.53,2.45l395.26,217.39c9.57,5.26,13.05,17.28,7.79,26.84-1.81,3.29-4.51,5.99-7.79,7.79l-395.26,217.39c-2.92,1.6-6.2,2.45-9.52,2.45h0Z"/>
    </g>
  </g>
</svg>