<?xml version="1.0" encoding="UTF-8"?>
<svg id="Layer_2" data-name="Layer 2" xmlns="http://www.w3.org/2000/svg" viewBox="0 0 1081.81 1082.03">
  <defs>
    <style>
      .cls-1 {
        fill: #fff;
      }

      .cls-2 {
        fill: #da1e28;
      }
    </style>
  </defs>
  <g id="Layer_2-2" data-name="Layer 2">
    <g id="uuid-2c32b0fb-b311-410b-81b8-5171a1b7b815" data-name="Layer 2-2">
      <polygon points="44 38.89 77.27 1004.76 1081.81 1004.76 1081.81 231.82 518 188.89 367 44.89 44 38.89"/>
      <path class="cls-2" d="M540.91,1004.76H77.27c-42.68,0-77.27-34.59-77.27-77.27V77.49C0,34.81,34.59.22,77.27.22L354.29,0c20.59-.02,40.34,8.19,54.86,22.8l131.75,131.97,463.63-.22c42.68,0,77.27,34.59,77.27,77.27v232.04h-77.27v-231.82l-495.7-.22-22.41-22.8-132.14-131.75-277.02.22v849.99h463.63v77.27ZM1081.63,656.75l-.15,377.31c0,26.42-21.93,47.97-48.89,47.97h-365.8c-26.96,0-48.89-21.56-48.89-48.01v-483.7c0-26.49,21.93-48.05,48.89-48.05l260.48.22,154.54,154.54s-.18-.29-.18-.29ZM1004.15,1004.77l.39-309.1h-115.91v-115.91h-193.18v425h309.09l-.39.02Z"/>
      <g id="uuid-4de7608f-d093-4865-b215-fc1ad381df06">
        <circle class="cls-2" cx="419.63" cy="557.89" r="121.27"/>
        <path class="cls-1" d="M184.89,697.36c-6.42,0-11.63-5.2-11.63-11.63v-255.71c0-6.42,5.2-11.63,11.62-11.63,1.95,0,3.89.49,5.6,1.44l232.46,127.85c5.63,3.09,7.68,10.16,4.58,15.79-1.06,1.93-2.65,3.52-4.58,4.58l-232.46,127.85c-1.72.94-3.65,1.44-5.6,1.44h0Z"/>
      </g>
    </g>
  </g>
</svg>