<?xml version="1.0" encoding="UTF-8"?>
<svg id="Layer_2" data-name="Layer 2" xmlns="http://www.w3.org/2000/svg" viewBox="0 0 1081.81 1080.2">
  <defs>
    <style>
      .cls-1 {
        fill: #fff;
      }

      .cls-2 {
        fill: #da1e28;
      }
    </style>
  </defs>
  <g id="Layer_3" data-name="Layer 3">
    <rect x="51.44" y="57.32" width="977.35" height="186.06"/>
    <rect x="57.85" y="443.34" width="965.58" height="581.47"/>
  </g>
  <g id="Layer_2-2" data-name="Layer 2">
    <circle class="cls-2" cx="192.89" cy="540.1" r="38.58"/>
    <path class="cls-2" d="M1004.65,1080.2H77.16c-42.59-.05-77.11-34.56-77.16-77.16V462.94c.05-42.59,34.56-77.11,77.16-77.16h927.5c42.59.05,77.11,34.56,77.16,77.16v540.1c-.05,42.59-34.56,77.11-77.16,77.16ZM77.16,462.94v540.1h927.5V462.94H77.16Z"/>
    <circle class="cls-2" cx="192.89" cy="154.31" r="38.58"/>
    <path class="cls-2" d="M1004.65,308.63H77.16C34.56,308.58.05,274.07,0,231.47V77.16C.05,34.56,34.56.05,77.16,0h927.5c42.59.05,77.11,34.56,77.16,77.16v154.31c-.05,42.59-34.56,77.11-77.16,77.16ZM77.16,77.16v154.31h927.5V77.16H77.16Z"/>
  </g>
  <g id="Layer_4" data-name="Layer 4">
    <path class="cls-2" d="M778.36,583.58c82.52,0,149.41,66.89,149.41,149.41s-66.89,149.41-149.41,149.41-149.41-66.89-149.41-149.41,66.89-149.41,149.41-149.41"/>
    <path class="cls-1" d="M489.16,904.83c-7.91,0-14.32-6.41-14.32-14.32v-315.04c0-7.91,6.41-14.32,14.32-14.32,2.41,0,4.79.61,6.9,1.78l286.41,157.52c6.93,3.81,9.46,12.52,5.65,19.45-1.31,2.38-3.26,4.34-5.65,5.65l-286.41,157.52c-2.11,1.16-4.49,1.78-6.9,1.78h0Z"/>
  </g>
</svg>